<svg width="46" height="46" viewBox="0 0 46 46" fill="none" xmlns="http://www.w3.org/2000/svg">
<circle cx="23" cy="23" r="23" fill="#51D5C1"/>
<path d="M23.3073 9.00851L23.3073 9.0085C23.1171 8.89717 22.8829 8.89717 22.6927 9.0085L22.6927 9.0085L13.9088 14.1538C13.4863 13.729 12.9052 13.4653 12.2638 13.4653C10.973 13.4653 9.925 14.5302 9.925 15.8372C9.925 16.929 10.6565 17.8511 11.6498 18.1255V28.414C11.6498 28.6356 11.7664 28.8409 11.9564 28.9523L11.9564 28.9524L20.7384 34.0968C20.6879 34.2904 20.6604 34.4935 20.6604 34.7031C20.6604 36.0099 21.7085 37.075 22.9993 37.075C24.2898 37.075 25.3379 36.0099 25.3379 34.7031C25.3379 34.4938 25.3106 34.291 25.2601 34.0975L34.0436 28.9524C34.0436 28.9524 34.0436 28.9524 34.0436 28.9524C34.2337 28.8411 34.3502 28.6355 34.3502 28.414V18.1255C35.3435 17.8511 36.075 16.929 36.075 15.8372C36.075 14.5302 35.027 13.4653 33.7362 13.4653C33.0948 13.4653 32.5135 13.729 32.0909 14.1538L23.3073 9.00851ZM11.153 15.8372C11.153 15.2141 11.6523 14.7091 12.2638 14.7091C12.8751 14.7091 13.3744 15.214 13.3744 15.8372C13.3744 16.4601 12.8751 16.9653 12.2638 16.9653C11.6523 16.9653 11.153 16.4601 11.153 15.8372ZM22.9993 35.8312C22.3877 35.8312 21.8885 35.3262 21.8885 34.7031C21.8885 34.0802 22.3878 33.575 22.9993 33.575C23.6106 33.575 24.1101 34.0802 24.1101 34.7031C24.1101 35.3262 23.6106 35.8312 22.9993 35.8312ZM33.1222 28.0553L24.6456 33.0208C24.2228 32.5953 23.6412 32.3312 22.9993 32.3312C22.3577 32.3312 21.7762 32.5951 21.3536 33.0202L12.8778 28.0553V18.1255C13.8709 17.8511 14.6024 16.929 14.6024 15.8372C14.6024 15.6274 14.575 15.424 14.5242 15.23L22.9999 10.2652L31.4758 15.23C31.425 15.4239 31.3976 15.6272 31.3976 15.8372C31.3976 16.929 32.1291 17.8511 33.1222 18.1255V28.0553ZM33.7362 16.9653C33.1249 16.9653 32.6254 16.4601 32.6254 15.8372C32.6254 15.2141 33.1249 14.7091 33.7362 14.7091C34.3477 14.7091 34.847 15.2141 34.847 15.8372C34.847 16.4601 34.3477 16.9653 33.7362 16.9653Z" fill="white" stroke="white" stroke-width="0.15"/>
<path d="M30.7554 17.2318L30.7553 17.2318L23.3186 13.009L23.3186 13.009C23.1213 12.897 22.8787 12.897 22.6814 13.009L22.6814 13.009L15.2447 17.2318L15.2446 17.2318C15.0473 17.3441 14.925 17.5516 14.925 17.7769V26.2228C14.925 26.448 15.0472 26.6559 15.2447 26.7679L22.6814 30.991L22.6815 30.991C22.78 31.0468 22.8898 31.075 22.9999 31.075C23.1102 31.075 23.22 31.0468 23.3185 30.991L23.3186 30.991L30.7553 26.7679C30.9528 26.6559 31.075 26.448 31.075 26.2228V17.7769C31.075 17.5516 30.9527 17.3441 30.7554 17.2318ZM23.6383 29.3573V22.3635L29.7982 18.8655V25.8592L23.6383 29.3573ZM16.2018 25.8592V18.8655L22.3617 22.3636V29.3573L16.2018 25.8592ZM16.842 17.7769L22.9999 14.2802L29.158 17.7769L22.9999 21.2739L16.842 17.7769Z" fill="white" stroke="white" stroke-width="0.15"/>
</svg>
