<svg width="46" height="46" viewBox="0 0 46 46" fill="none" xmlns="http://www.w3.org/2000/svg">
<circle cx="23" cy="23.0001" r="23" fill="#51D5C1"/>
<path d="M34.4916 21.5612C34.0046 20.9369 33.2576 20.5779 32.4417 20.5779H31.9987V18.6812C31.9987 16.0494 29.7558 13.9082 26.999 13.9082H21.9433C21.7893 13.9082 21.6333 13.8729 21.4964 13.808L18.3416 12.3017C17.9276 12.1041 17.4636 12 16.9996 12H14.9998C12.7939 11.999 11 13.7116 11 15.8174V28.2271C11 30.8589 13.2429 33 15.9997 33H28.5569C30.7828 33 32.7067 31.633 33.3586 29.5568L34.8905 23.7185C35.1245 22.972 34.9785 22.1864 34.4916 21.5612ZM12.9999 28.2271V15.8174C12.9999 14.7645 13.8968 13.9082 14.9998 13.9082H16.9996C17.1536 13.9082 17.3096 13.9435 17.4466 14.0085L20.6014 15.5148C21.0154 15.7124 21.4794 15.8164 21.9433 15.8164H26.999C28.6529 15.8164 29.9988 17.1013 29.9988 18.6802V20.577H19.6145C17.9146 20.577 16.3967 21.607 15.8257 23.1735L13.6358 29.9873C13.2379 29.5014 12.9999 28.8905 12.9999 28.2271ZM32.9627 23.2126L31.4307 29.0499C31.0468 30.2708 29.8918 31.0908 28.5569 31.0908H15.9997C15.7917 31.0908 15.5887 31.0708 15.3927 31.0316L17.7266 23.7682C18.0056 23.0016 18.7655 22.4871 19.6155 22.4871H32.4427C32.6847 22.4871 32.8257 22.6208 32.8877 22.7009C32.9497 22.7811 33.0436 22.9482 32.9627 23.2126Z" fill="white"/>
</svg>
