<svg width="40" height="40" viewBox="0 0 40 40" fill="none" xmlns="http://www.w3.org/2000/svg">
<circle cx="20" cy="20" r="20" fill="#51D5C1"/>
<g clip-path="url(#clip0_178_7553)">
<path d="M29.0509 23.9003L21.8046 11.3493C21.428 10.6969 20.7533 10.3075 20.0001 10.3075C19.2468 10.3075 18.5722 10.697 18.1955 11.3493L10.9492 23.9003C10.5726 24.5527 10.5726 25.3316 10.9492 25.984C11.3259 26.6363 12.0005 27.0258 12.7538 27.0258H27.2464C27.9997 27.0258 28.6743 26.6363 29.0509 25.984C29.4276 25.3316 29.4276 24.5527 29.0509 23.9003ZM28.103 25.4367C27.9242 25.7464 27.604 25.9312 27.2464 25.9312H12.7538C12.3962 25.9312 12.0759 25.7464 11.8972 25.4367C11.7184 25.127 11.7184 24.7572 11.8972 24.4475L19.1434 11.8966C19.3223 11.5869 19.6425 11.402 20.0001 11.402C20.3577 11.402 20.6779 11.5869 20.8567 11.8966L28.103 24.4475C28.2818 24.7572 28.2818 25.127 28.103 25.4367Z" fill="white"/>
<path d="M20 22.2827C19.5976 22.2827 19.2703 22.6101 19.2703 23.0124C19.2703 23.4148 19.5976 23.7421 20 23.7421C20.4023 23.7421 20.7297 23.4148 20.7297 23.0124C20.7297 22.6101 20.4023 22.2827 20 22.2827Z" fill="white"/>
<path d="M20.5472 15.5328H19.4526V21.1881H20.5472V15.5328Z" fill="white"/>
</g>
<defs>
<clipPath id="clip0_178_7553">
<rect width="18.6667" height="18.6667" fill="white" transform="translate(10.6667 9.33331)"/>
</clipPath>
</defs>
</svg>
