<svg width="40" height="40" viewBox="0 0 40 40" fill="none" xmlns="http://www.w3.org/2000/svg">
<circle cx="20" cy="20" r="20" fill="#51D5C1"/>
<g clip-path="url(#clip0_178_7477)">
<path d="M27.1302 16.8442L29.1789 14.7788C29.2395 14.7176 29.2678 14.6315 29.2553 14.5464C29.2427 14.4612 29.1908 14.3869 29.1151 14.3458L22.3887 10.7001C22.2822 10.6424 22.1506 10.6615 22.065 10.7471L20.0001 12.8121L17.9352 10.7473C17.8838 10.6955 17.8149 10.6667 17.7424 10.6667C17.6968 10.6667 17.652 10.6783 17.6119 10.7002L15.4514 11.8708C15.3872 11.9058 15.3405 11.9634 15.3198 12.0334C15.299 12.1034 15.3066 12.1774 15.3413 12.2416C15.3894 12.3298 15.4816 12.3849 15.5819 12.3849C15.6271 12.3849 15.6723 12.3733 15.712 12.3518L17.6928 11.2781L19.5474 13.1327L13.3055 16.5065L11.4666 14.6526L14.7503 12.8727C14.8148 12.8381 14.8615 12.7805 14.8823 12.7105C14.9031 12.6405 14.8954 12.5665 14.8604 12.5023C14.8127 12.4141 14.7204 12.359 14.6202 12.359C14.5749 12.359 14.5301 12.3707 14.49 12.3922L10.8854 14.346C10.81 14.3864 10.7575 14.4616 10.7451 14.5465C10.7327 14.6311 10.7611 14.7178 10.8216 14.7787L12.8701 16.8442L10.8215 18.9095C10.7609 18.9707 10.7326 19.0568 10.7451 19.142C10.7577 19.2272 10.8096 19.3015 10.8853 19.3425L12.9822 20.479V25.4134C12.9821 25.4228 12.9826 25.4322 12.9835 25.4415C12.9839 25.4455 12.9847 25.4494 12.9853 25.4533C12.9859 25.4581 12.9865 25.4629 12.9874 25.4676C12.9886 25.4735 12.9902 25.4793 12.9917 25.4851C12.9925 25.4877 12.993 25.4904 12.9938 25.4931C12.9956 25.499 12.9978 25.5047 12.9999 25.5104C13.0009 25.513 13.0017 25.5156 13.0027 25.5181C13.0048 25.5233 13.0073 25.5282 13.0097 25.5332C13.0112 25.5363 13.0125 25.5394 13.0141 25.5424C13.0163 25.5465 13.0188 25.5504 13.0211 25.5543C13.0234 25.5581 13.0255 25.5618 13.0279 25.5655C13.0299 25.5686 13.0322 25.5714 13.0343 25.5744C13.0374 25.5787 13.0405 25.583 13.0438 25.5872C13.0457 25.5894 13.0478 25.5916 13.0497 25.5938C13.0536 25.5982 13.0574 25.6027 13.0616 25.6069C13.0637 25.609 13.0661 25.611 13.0683 25.6131C13.0725 25.617 13.0766 25.621 13.081 25.6246C13.0853 25.6282 13.0898 25.6314 13.0942 25.6346C13.0969 25.6366 13.0993 25.6386 13.102 25.6405C13.1098 25.6457 13.118 25.6507 13.1263 25.6552L19.8688 29.2998C19.8785 29.3051 19.8886 29.3097 19.899 29.3138C19.9013 29.3147 19.9036 29.3155 19.9058 29.3163C19.9134 29.3191 19.9211 29.3216 19.929 29.3237C19.9319 29.3245 19.9347 29.3252 19.9375 29.3259C19.9452 29.3277 19.953 29.3291 19.9608 29.3302C19.9635 29.3306 19.9662 29.3311 19.9688 29.3314C19.9791 29.3326 19.9896 29.3334 20.0002 29.3334C20.0108 29.3334 20.0212 29.3326 20.0315 29.3314C20.0342 29.3311 20.0368 29.3306 20.0395 29.3302C20.0474 29.3291 20.0552 29.3277 20.0628 29.3259C20.0656 29.3252 20.0685 29.3245 20.0713 29.3237C20.0792 29.3216 20.0869 29.3191 20.0944 29.3163C20.0967 29.3155 20.099 29.3147 20.1013 29.3138C20.1117 29.3097 20.1218 29.3051 20.1315 29.2998L26.8739 25.6552C26.8823 25.6507 26.8904 25.6457 26.8983 25.6405C26.901 25.6386 26.9034 25.6365 26.906 25.6346C26.9105 25.6313 26.915 25.6281 26.9193 25.6246C26.9237 25.621 26.9278 25.617 26.9319 25.6131C26.9341 25.611 26.9365 25.6091 26.9387 25.6069C26.9428 25.6027 26.9467 25.5982 26.9505 25.5938C26.9525 25.5916 26.9546 25.5894 26.9564 25.5872C26.9598 25.583 26.9628 25.5787 26.9659 25.5744C26.9681 25.5714 26.9703 25.5686 26.9723 25.5655C26.9748 25.5618 26.9769 25.5581 26.9792 25.5543C26.9815 25.5504 26.984 25.5465 26.9861 25.5424C26.9877 25.5394 26.9891 25.5363 26.9906 25.5332C26.993 25.5282 26.9954 25.5233 26.9975 25.5181C26.9986 25.5156 26.9994 25.513 27.0003 25.5104C27.0025 25.5047 27.0047 25.499 27.0064 25.4931C27.0072 25.4905 27.0078 25.4878 27.0085 25.4851C27.01 25.4793 27.0117 25.4735 27.0128 25.4676C27.0138 25.4629 27.0143 25.4581 27.015 25.4533C27.0156 25.4494 27.0164 25.4455 27.0167 25.4415C27.0177 25.4322 27.0181 25.4228 27.0181 25.4134V20.479L29.1148 19.3425C29.1903 19.3017 29.2428 19.2266 29.2552 19.142C29.2676 19.0571 29.2391 18.9703 29.179 18.9094L27.1302 16.8442ZM22.3074 11.2781L28.5337 14.6527L26.6948 16.5066L20.453 13.1326L22.3074 11.2781ZM13.3847 20.0752L11.4667 19.0356L13.3056 17.1818L19.5474 20.5558L17.6929 22.4102L13.387 20.0764C13.3863 20.076 13.3855 20.0756 13.3847 20.0752ZM19.7268 28.6013L13.529 25.2511V20.7754L17.6117 22.9883C17.6528 23.0105 17.6975 23.0213 17.7419 23.0213C17.8128 23.0213 17.8828 22.9938 17.9354 22.9412L19.7268 21.1498V28.6013ZM20.0002 20.1788L13.8312 16.8442L20.0003 13.5096L26.1694 16.8442L20.0002 20.1788ZM26.6168 20.0746C26.6153 20.0754 26.6138 20.0762 26.6124 20.077L25.2501 20.8154C25.1856 20.85 25.1389 20.908 25.1181 20.978C25.0973 21.048 25.105 21.122 25.1396 21.1862C25.1877 21.2744 25.28 21.3291 25.3802 21.3291C25.4255 21.3291 25.4707 21.3178 25.5104 21.2963L26.4714 20.7754V25.2512L20.2736 28.6013V21.1497L22.0652 22.9412C22.117 22.993 22.1855 23.0214 22.2584 23.0214C22.3036 23.0214 22.3484 23.0098 22.3886 22.9883L24.549 21.8172C24.6132 21.7826 24.6599 21.7246 24.6807 21.6546C24.7014 21.5846 24.6938 21.511 24.6591 21.4468C24.611 21.3582 24.5188 21.3036 24.4182 21.3036C24.3733 21.3036 24.3281 21.3149 24.2884 21.3367L22.3076 22.41L20.453 20.5558L26.6949 17.1816L28.5339 19.0355L26.6168 20.0746Z" fill="white" stroke="white" stroke-width="0.5"/>
</g>
<defs>
<clipPath id="clip0_178_7477">
<rect width="18.6667" height="18.6667" fill="white" transform="translate(10.6667 10.6667)"/>
</clipPath>
</defs>
</svg>
