<svg width="46" height="46" viewBox="0 0 46 46" fill="none" xmlns="http://www.w3.org/2000/svg">
<circle cx="23" cy="23" r="23" fill="#51D5C1"/>
<g clip-path="url(#clip0_122_576)">
<path d="M30.1294 12.3184L23.3423 10.0553C23.1201 9.98125 22.8799 9.98125 22.6577 10.0553L15.8706 12.3184C14.7915 12.6768 13.8528 13.3662 13.1879 14.2886C12.5229 15.211 12.1656 16.3195 12.1667 17.4566V23C12.1667 31.1933 22.1333 35.7183 22.5602 35.9069C22.6986 35.9684 22.8485 36.0002 23 36.0002C23.1515 36.0002 23.3014 35.9684 23.4398 35.9069C23.8667 35.7183 33.8333 31.1933 33.8333 23V17.4566C33.8344 16.3195 33.477 15.211 32.8121 14.2886C32.1472 13.3662 31.2085 12.6768 30.1294 12.3184ZM31.6667 23C31.6667 28.9096 24.8211 32.7858 23 33.7131C21.1767 32.789 14.3333 28.9248 14.3333 23V17.4566C14.3334 16.7744 14.5481 16.1095 14.9471 15.5562C15.3461 15.0028 15.9091 14.589 16.5563 14.3734L23 12.2252L29.4437 14.3734C30.0909 14.589 30.6539 15.0028 31.0529 15.5562C31.4519 16.1095 31.6666 16.7744 31.6667 17.4566V23Z" fill="white"/>
<path d="M26.575 18.9917L22.038 23.5417L19.607 21.0067C19.5094 20.9 19.3915 20.814 19.2602 20.7536C19.1289 20.6932 18.9868 20.6597 18.8423 20.655C18.6978 20.6504 18.5539 20.6748 18.4189 20.7266C18.284 20.7785 18.1608 20.8568 18.0566 20.957C17.9524 21.0572 17.8694 21.1773 17.8123 21.3101C17.7552 21.4429 17.7253 21.5858 17.7243 21.7304C17.7233 21.8749 17.7512 22.0182 17.8065 22.1518C17.8617 22.2854 17.9431 22.4066 18.0459 22.5082L20.5441 25.1082C20.7304 25.3094 20.9556 25.4708 21.206 25.5825C21.4565 25.6942 21.727 25.754 22.0012 25.7582H22.0369C22.3057 25.7591 22.5719 25.7066 22.8202 25.6037C23.0684 25.5009 23.2938 25.3498 23.4832 25.1591L28.1112 20.5311C28.2123 20.4302 28.2925 20.3104 28.3473 20.1786C28.402 20.0467 28.4303 19.9053 28.4305 19.7625C28.4306 19.6197 28.4027 19.4783 28.3481 19.3463C28.2936 19.2143 28.2137 19.0944 28.1128 18.9933C28.0119 18.8922 27.8921 18.812 27.7603 18.7572C27.6284 18.7024 27.487 18.6742 27.3442 18.674C27.2014 18.6739 27.06 18.7018 26.928 18.7563C26.796 18.8109 26.6761 18.8908 26.575 18.9917Z" fill="white"/>
</g>
<defs>
<clipPath id="clip0_122_576">
<rect width="26" height="26" fill="white" transform="translate(10 10)"/>
</clipPath>
</defs>
</svg>
