<svg width="46" height="46" viewBox="0 0 46 46" fill="none" xmlns="http://www.w3.org/2000/svg">
<circle cx="23" cy="23" r="23" fill="#51D5C1"/>
<g clip-path="url(#clip0_116_427)">
<path d="M17.2521 12.9H13.0479C12.4149 12.9 11.9 13.4149 11.9 14.0479V18.2521C11.9 18.8851 12.4149 19.4 13.0479 19.4H17.2521C17.8851 19.4 18.4 18.8851 18.4 18.2521V14.0479C18.4 13.4149 17.8851 12.9 17.2521 12.9ZM17.5 18.2521C17.5 18.3887 17.3887 18.5 17.2521 18.5H13.0479C12.9113 18.5 12.8 18.3887 12.8 18.2521V14.0479C12.8 13.9113 12.9113 13.8 13.0479 13.8H17.2521C17.3887 13.8 17.5 13.9113 17.5 14.0479V18.2521Z" fill="white" stroke="white" stroke-width="0.2"/>
<path d="M24.3921 12.9H20.188C19.5549 12.9 19.04 13.4149 19.04 14.0479V18.2521C19.04 18.8851 19.5549 19.4 20.188 19.4H24.3921C25.0251 19.4 25.54 18.8851 25.54 18.2521V14.0479C25.54 13.4149 25.0251 12.9 24.3921 12.9ZM24.64 18.2521C24.64 18.3887 24.5287 18.5 24.3921 18.5H20.188C20.0514 18.5 19.94 18.3887 19.94 18.2521V14.0479C19.94 13.9113 20.0514 13.8 20.188 13.8H24.3921C24.5287 13.8 24.64 13.9113 24.64 14.0479V18.2521Z" fill="white" stroke="white" stroke-width="0.2"/>
<path d="M31.5321 12.9H27.3279C26.6949 12.9 26.18 13.4149 26.18 14.0479V18.2521C26.18 18.8851 26.6949 19.4 27.3279 19.4H31.5321C32.1651 19.4 32.68 18.8851 32.68 18.2521V14.0479C32.68 13.4149 32.1651 12.9 31.5321 12.9ZM31.78 18.2521C31.78 18.3887 31.6687 18.5 31.5321 18.5H27.3279C27.1913 18.5 27.08 18.3887 27.08 18.2521V14.0479C27.08 13.9113 27.1913 13.8 27.3279 13.8H31.5321C31.6687 13.8 31.78 13.9113 31.78 14.0479V18.2521Z" fill="white" stroke="white" stroke-width="0.2"/>
<path d="M17.2521 20.04H13.0479C12.4149 20.04 11.9 20.5549 11.9 21.188V25.3921C11.9 26.0251 12.4149 26.54 13.0479 26.54H17.2521C17.8851 26.54 18.4 26.0251 18.4 25.3921V21.188C18.4 20.5549 17.8851 20.04 17.2521 20.04ZM17.5 25.3921C17.5 25.5287 17.3887 25.64 17.2521 25.64H13.0479C12.9113 25.64 12.8 25.5287 12.8 25.3921V21.188C12.8 21.0514 12.9113 20.94 13.0479 20.94H17.2521C17.3887 20.94 17.5 21.0514 17.5 21.188V25.3921Z" fill="white" stroke="white" stroke-width="0.2"/>
<path d="M24.3921 20.04H20.188C19.5549 20.04 19.04 20.5549 19.04 21.188V25.3921C19.04 26.0251 19.5549 26.54 20.188 26.54H24.3921C25.0251 26.54 25.54 26.0251 25.54 25.3921V21.188C25.54 20.5549 25.0251 20.04 24.3921 20.04ZM24.64 25.3921C24.64 25.5287 24.5287 25.64 24.3921 25.64H20.188C20.0514 25.64 19.94 25.5287 19.94 25.3921V21.188C19.94 21.0514 20.0514 20.94 20.188 20.94H24.3921C24.5287 20.94 24.64 21.0514 24.64 21.188V25.3921Z" fill="white" stroke="white" stroke-width="0.2"/>
<path d="M31.5321 20.04H27.3279C26.6949 20.04 26.18 20.5549 26.18 21.188V25.3921C26.18 26.0251 26.6949 26.54 27.3279 26.54H31.5321C32.1651 26.54 32.68 26.0251 32.68 25.3921V21.188C32.68 20.5549 32.1651 20.04 31.5321 20.04ZM31.78 25.3921C31.78 25.5287 31.6687 25.64 31.5321 25.64H27.3279C27.1913 25.64 27.08 25.5287 27.08 25.3921V21.188C27.08 21.0514 27.1913 20.94 27.328 20.94H31.5321C31.6687 20.94 31.78 21.0514 31.78 21.188L31.78 25.3921Z" fill="white" stroke="white" stroke-width="0.2"/>
<path d="M17.2521 27.18H13.0479C12.4149 27.18 11.9 27.6949 11.9 28.328V32.5321C11.9 33.1651 12.4149 33.68 13.0479 33.68H17.2521C17.8851 33.68 18.4 33.1651 18.4 32.5321V28.328C18.4 27.6949 17.8851 27.18 17.2521 27.18ZM17.5 32.5321C17.5 32.6687 17.3887 32.78 17.2521 32.78H13.0479C12.9113 32.78 12.8 32.6687 12.8 32.5321V28.328C12.8 28.1914 12.9113 28.08 13.0479 28.08H17.2521C17.3887 28.08 17.5 28.1914 17.5 28.328V32.5321Z" fill="white" stroke="white" stroke-width="0.2"/>
<path d="M24.64 32.5321V32.5366C24.6376 32.6711 24.5272 32.78 24.3921 32.78H20.188C20.0514 32.78 19.94 32.6687 19.94 32.5321V28.328C19.94 28.1914 20.0514 28.08 20.188 28.08H24.3921C24.5287 28.08 24.64 28.1914 24.64 28.328V32.5321ZM24.3921 27.18H20.188C19.5549 27.18 19.04 27.6949 19.04 28.328V32.5321C19.04 33.1651 19.5549 33.68 20.188 33.68H24.3921C25.0251 33.68 25.54 33.1651 25.54 32.5321V28.328C25.54 27.6949 25.0251 27.18 24.3921 27.18Z" fill="white" stroke="white" stroke-width="0.2"/>
<path d="M31.5321 27.18H27.3279C26.6949 27.18 26.18 27.6949 26.18 28.328V32.5321C26.18 33.1651 26.6949 33.68 27.3279 33.68H31.5321C32.1651 33.68 32.68 33.1651 32.68 32.5321V28.328C32.68 27.6949 32.1651 27.18 31.5321 27.18ZM31.78 32.5321C31.78 32.6687 31.6687 32.78 31.5321 32.78H27.3279C27.1913 32.78 27.08 32.6687 27.08 32.5321V28.328C27.08 28.1914 27.1913 28.08 27.3279 28.08H31.5321C31.6687 28.08 31.78 28.1914 31.78 28.328V32.5321Z" fill="white" stroke="white" stroke-width="0.2"/>
</g>
<defs>
<clipPath id="clip0_116_427">
<rect width="21" height="21" fill="white" transform="translate(12 13)"/>
</clipPath>
</defs>
</svg>
