<svg width="46" height="46" viewBox="0 0 46 46" fill="none" xmlns="http://www.w3.org/2000/svg">
<circle cx="23" cy="23" r="23" fill="#51D5C1"/>
<path d="M28.5 24.75C28.5 25.0484 28.3841 25.3345 28.1778 25.5455C27.9715 25.7565 27.6917 25.875 27.4 25.875H18.6C18.3083 25.875 18.0285 25.7565 17.8222 25.5455C17.6159 25.3345 17.5 25.0484 17.5 24.75C17.5 24.4516 17.6159 24.1655 17.8222 23.9545C18.0285 23.7435 18.3083 23.625 18.6 23.625H27.4C27.6917 23.625 27.9715 23.7435 28.1778 23.9545C28.3841 24.1655 28.5 24.4516 28.5 24.75ZM24.1 28.125H18.6C18.3083 28.125 18.0285 28.2435 17.8222 28.4545C17.6159 28.6655 17.5 28.9516 17.5 29.25C17.5 29.5484 17.6159 29.8345 17.8222 30.0455C18.0285 30.2565 18.3083 30.375 18.6 30.375H24.1C24.3917 30.375 24.6715 30.2565 24.8778 30.0455C25.0841 29.8345 25.2 29.5484 25.2 29.25C25.2 28.9516 25.0841 28.6655 24.8778 28.4545C24.6715 28.2435 24.3917 28.125 24.1 28.125ZM34 20.7956V30.375C33.9982 31.8663 33.4182 33.296 32.3871 34.3505C31.3561 35.405 29.9581 35.9982 28.5 36H17.5C16.0418 35.9982 14.6439 35.405 13.6128 34.3505C12.5818 33.296 12.0017 31.8663 12 30.375V14.625C12.0017 13.1337 12.5818 11.704 13.6128 10.6495C14.6439 9.59502 16.0418 9.00181 17.5 9.00003H22.4665C23.4781 8.99736 24.4801 9.19981 25.4147 9.59567C26.3493 9.99152 27.1979 10.5729 27.9115 11.3063L31.7439 15.228C32.4613 15.9573 33.0302 16.8249 33.4174 17.7806C33.8047 18.7363 34.0027 19.7611 34 20.7956ZM26.3561 12.897C26.0099 12.5541 25.6212 12.2591 25.2 12.0195V16.875C25.2 17.1734 25.3159 17.4595 25.5222 17.6705C25.7285 17.8815 26.0082 18 26.3 18H31.0476C30.8132 17.5694 30.5244 17.1722 30.1885 16.8188L26.3561 12.897ZM31.8 20.7956C31.8 20.61 31.7648 20.4323 31.7483 20.25H26.3C25.4248 20.25 24.5854 19.8944 23.9665 19.2615C23.3477 18.6286 23 17.7701 23 16.875V11.3029C22.8218 11.286 22.6469 11.25 22.4665 11.25H17.5C16.6248 11.25 15.7854 11.6056 15.1665 12.2385C14.5477 12.8715 14.2 13.7299 14.2 14.625V30.375C14.2 31.2701 14.5477 32.1286 15.1665 32.7615C15.7854 33.3944 16.6248 33.75 17.5 33.75H28.5C29.3752 33.75 30.2146 33.3944 30.8334 32.7615C31.4523 32.1286 31.8 31.2701 31.8 30.375V20.7956Z" fill="white"/>
</svg>
