<svg width="46" height="46" viewBox="0 0 46 46" fill="none" xmlns="http://www.w3.org/2000/svg">
<circle cx="23" cy="23" r="23" fill="#51D5C1"/>
<g clip-path="url(#clip0_120_567)">
<path d="M34.71 33.2901L32.96 31.5401C32.78 30.0001 31.73 28.7301 30.31 28.2401C30.76 27.2301 31 26.1301 31 25.0001C31 24.7101 30.96 24.3701 30.9 24.0001H33C33.55 24.0001 34 23.5501 34 23.0001C34 22.4501 33.55 22.0001 33 22.0001H30.42C30.12 20.9801 29.76 19.9101 29.43 19.0001H30C32.21 19.0001 34 17.2101 34 15.0001V14.0001C34 13.4501 33.55 13.0001 33 13.0001C32.45 13.0001 32 13.4501 32 14.0001V15.0001C32 16.1001 31.1 17.0001 30 17.0001H28.66C28.56 16.7601 28.5 16.6101 28.5 16.6001C27.54 14.4101 25.39 13.0001 23 13.0001C20.76 13.0001 18.73 14.2601 17.68 16.2701L12.71 11.2901C12.32 10.9001 11.68 10.9001 11.29 11.2901C10.9 11.6801 10.9 12.3201 11.29 12.7101L33.29 34.7101C33.49 34.9101 33.74 35.0001 34 35.0001C34.26 35.0001 34.51 34.9001 34.71 34.7101C35.1 34.3201 35.1 33.6901 34.71 33.3001V33.2901ZM19.33 17.4001C19.97 15.9401 21.41 15.0001 23 15.0001C24.59 15.0001 26.03 15.9401 26.67 17.4001C27.08 18.3401 29 23.3301 29 25.0001C29 25.7501 28.85 26.4801 28.58 27.1701L19.18 17.7601C19.24 17.6201 19.29 17.5001 19.34 17.4001H19.33Z" fill="white"/>
<path d="M26.9 30.9C26.66 30.4 26.07 30.19 25.57 30.43C24.76 30.81 23.9 31.01 23 31.01C19.69 31.01 17 28.32 17 25.01C17 24.72 17.07 23.97 17.58 22.3C17.74 21.77 17.44 21.21 16.91 21.05C16.38 20.89 15.82 21.19 15.66 21.72C15.63 21.82 15.61 21.91 15.58 22.01H13C12.45 22.01 12 22.46 12 23.01C12 23.56 12.45 24.01 13 24.01H15.1C15.04 24.39 15 24.73 15 25.01C15 26.16 15.25 27.26 15.69 28.25C14.13 28.8 13 30.27 13 32.01V33.01C13 33.56 13.45 34.01 14 34.01C14.55 34.01 15 33.56 15 33.01V32.01C15 30.98 15.78 30.14 16.78 30.03C18.25 31.84 20.49 33.01 23 33.01C24.2 33.01 25.35 32.75 26.43 32.24C26.93 32 27.14 31.41 26.9 30.91V30.9Z" fill="white"/>
</g>
<defs>
<clipPath id="clip0_120_567">
<rect width="24" height="24" fill="white" transform="translate(11 11)"/>
</clipPath>
</defs>
</svg>
