<svg width="46" height="46" viewBox="0 0 46 46" fill="none" xmlns="http://www.w3.org/2000/svg">
<circle cx="23" cy="23" r="23" fill="#51D5C1"/>
<path d="M30.7 18.8V17.7C30.7 15.6578 29.8888 13.6993 28.4447 12.2553C27.0007 10.8112 25.0422 10 23 10C20.9578 10 18.9993 10.8112 17.5553 12.2553C16.1112 13.6993 15.3 15.6578 15.3 17.7V18.8H12V33.1C12 33.9752 12.3477 34.8146 12.9665 35.4335C13.5854 36.0523 14.4248 36.4 15.3 36.4H30.7C31.5752 36.4 32.4146 36.0523 33.0335 35.4335C33.6523 34.8146 34 33.9752 34 33.1V18.8H30.7ZM17.5 17.7C17.5 16.2413 18.0795 14.8424 19.1109 13.8109C20.1424 12.7795 21.5413 12.2 23 12.2C24.4587 12.2 25.8576 12.7795 26.8891 13.8109C27.9205 14.8424 28.5 16.2413 28.5 17.7V18.8H17.5V17.7ZM31.8 33.1C31.8 33.3917 31.6841 33.6715 31.4778 33.8778C31.2715 34.0841 30.9917 34.2 30.7 34.2H15.3C15.0083 34.2 14.7285 34.0841 14.5222 33.8778C14.3159 33.6715 14.2 33.3917 14.2 33.1V21H31.8V33.1Z" fill="white"/>
<path d="M24.1 25.4H21.9V29.8H24.1V25.4Z" fill="white"/>
</svg>
