<svg width="32" height="32" viewBox="0 0 32 32" fill="none" xmlns="http://www.w3.org/2000/svg">
<g clip-path="url(#clip0_348_2241)">
<path d="M10.0012 29.0066C22.0774 29.0066 28.6812 19.002 28.6812 10.3267C28.6812 10.0425 28.6754 9.75954 28.6627 9.47804C29.9444 8.55128 31.0587 7.39478 31.9376 6.07838C30.7613 6.60133 29.4952 6.95313 28.1673 7.11207C29.5228 6.29908 30.5635 5.01343 31.0543 3.48071C29.7857 4.23267 28.3809 4.77906 26.8853 5.07422C25.6873 3.7981 23.9815 3 22.0928 3C18.4673 3 15.5271 5.94019 15.5271 9.56447C15.5271 10.0798 15.5847 10.5808 15.6973 11.0615C10.2407 10.7869 5.40211 8.17457 2.16431 4.20191C1.60059 5.17212 1.27539 6.29932 1.27539 7.50196C1.27539 9.77955 2.43458 11.7905 4.19703 12.9668C3.11988 12.9336 2.10816 12.638 1.22364 12.1458C1.22266 12.1734 1.22266 12.2002 1.22266 12.2295C1.22266 15.4092 3.4856 18.064 6.49 18.6656C5.93824 18.8157 5.35768 18.8965 4.7588 18.8965C4.33643 18.8965 3.92481 18.855 3.52467 18.7781C4.3606 21.3868 6.78444 23.285 9.65798 23.3382C7.4109 25.0994 4.58009 26.1485 1.50367 26.1485C0.974367 26.1485 0.451417 26.1182 -0.0625 26.0577C2.84302 27.92 6.29347 29.0069 10.0015 29.0069" fill="#51D5C1"/>
</g>
<defs>
<clipPath id="clip0_348_2241">
<rect width="32" height="32" fill="white"/>
</clipPath>
</defs>
</svg>
