<svg width="14" height="13" viewBox="0 0 14 13" fill="none" xmlns="http://www.w3.org/2000/svg">
<path d="M1.16145 11.3301C0.845049 11.6465 0.829982 12.2115 1.16899 12.543C1.50046 12.8745 2.06547 12.867 2.38188 12.5505L6.99237 7.93252L11.6104 12.5505C11.9343 12.8745 12.4918 12.8745 12.8233 12.543C13.1472 12.204 13.1548 11.6541 12.8233 11.3301L8.21279 6.7121L12.8233 2.10161C13.1548 1.77767 13.1548 1.22019 12.8233 0.888715C12.4843 0.564775 11.9343 0.557242 11.6104 0.881181L6.99237 5.49921L2.38188 0.881181C2.06547 0.564775 1.49293 0.549708 1.16899 0.888715C0.837515 1.22019 0.845049 1.7852 1.16145 2.10161L5.77948 6.7121L1.16145 11.3301Z" fill="#222223"/>
</svg>
