<svg width="32" height="32" viewBox="0 0 32 32" fill="none" xmlns="http://www.w3.org/2000/svg">
<g clip-path="url(#clip0_348_2243)">
<path d="M22.7314 8.83862C20.9068 9.2196 18.9519 9.44513 16.9375 9.49876V15.0623H23.5316C23.4708 12.871 23.1974 10.7642 22.7314 8.83862Z" fill="#51D5C1"/>
<path d="M6.59232 15.0624C6.65414 12.7235 6.9468 10.4663 7.44836 8.39449C5.80586 7.93344 4.30306 7.33737 2.99978 6.62097C1.21477 9.08413 0.175958 11.9916 0 15.0624H6.59232Z" fill="#51D5C1"/>
<path d="M6.59232 16.9376H0C0.175958 20.0084 1.21477 22.9159 2.99972 25.379C4.303 24.6626 5.80586 24.0666 7.44836 23.6055C6.9468 21.5337 6.65408 19.2765 6.59232 16.9376Z" fill="#51D5C1"/>
<path d="M18.6962 1.08355C18.1229 0.598555 17.5342 0.27183 16.9375 0.104248V7.62336C18.7786 7.57211 20.5598 7.37021 22.2202 7.03267C21.9155 6.10131 21.5613 5.22653 21.1595 4.42287C20.4375 2.97908 19.6087 1.85551 18.6962 1.08355Z" fill="#51D5C1"/>
<path d="M7.95299 25.408C6.5804 25.7934 5.319 26.2795 4.21094 26.8569C4.3597 27.0181 4.51122 27.1774 4.66724 27.3335C6.46976 29.136 8.62601 30.4561 10.9795 31.2294C10.3202 30.4502 9.71051 29.5091 9.16382 28.4157C8.70121 27.4905 8.2966 26.482 7.95299 25.408Z" fill="#51D5C1"/>
<path d="M10.842 4.42287C10.4402 5.22653 10.086 6.10131 9.78125 7.03267C11.4417 7.37021 13.2228 7.57211 15.064 7.62336V0.104248C14.4672 0.271892 13.8786 0.598555 13.3053 1.08355C12.3927 1.85551 11.564 2.97908 10.842 4.42287Z" fill="#51D5C1"/>
<path d="M25.4107 16.9376C25.3489 19.2765 25.0562 21.5337 24.5547 23.6055C26.1972 24.0666 27.7 24.6626 29.0033 25.379C30.7883 22.9159 31.827 20.0085 32.003 16.9376H25.4107Z" fill="#51D5C1"/>
<path d="M24.05 6.59199C25.4226 6.20651 26.684 5.72045 27.792 5.14307C27.6432 4.98186 27.4917 4.82253 27.3357 4.66652C25.5332 2.86406 23.3769 1.54397 21.0234 0.77063C21.6827 1.54984 22.2924 2.49089 22.8391 3.5842C23.3017 4.50944 23.7064 5.51805 24.05 6.59199Z" fill="#51D5C1"/>
<path d="M21.1595 27.5771C21.5613 26.7735 21.9155 25.8986 22.2202 24.9673C20.5598 24.6297 18.7786 24.4278 16.9375 24.3766V31.8957C17.5343 31.7281 18.1229 31.4015 18.6962 30.9164C19.6088 30.1444 20.4376 29.021 21.1595 27.5771Z" fill="#51D5C1"/>
<path d="M24.5547 8.39455C25.0562 10.4663 25.3489 12.7235 25.4107 15.0624H32.003C31.8271 11.9916 30.7883 9.08419 29.0033 6.62109C27.7 7.33743 26.1972 7.93349 24.5547 8.39455Z" fill="#51D5C1"/>
<path d="M16.9375 16.9376V22.5012C18.9519 22.5548 20.9067 22.7804 22.7314 23.1613C23.1974 21.2357 23.4708 19.129 23.5316 16.9376H16.9375Z" fill="#51D5C1"/>
<path d="M15.0628 15.0623V9.49876C13.0484 9.44513 11.0936 9.2196 9.2689 8.83862C8.80291 10.7642 8.52951 12.871 8.46875 15.0623H15.0628Z" fill="#51D5C1"/>
<path d="M7.95299 6.59199C8.29653 5.51799 8.70121 4.50944 9.16382 3.5842C9.71051 2.49089 10.3202 1.54978 10.9795 0.77063C8.62607 1.54397 6.46976 2.86406 4.66724 4.66658C4.51122 4.8226 4.3597 4.98193 4.21094 5.14313C5.319 5.72045 6.5804 6.20651 7.95299 6.59199Z" fill="#51D5C1"/>
<path d="M24.0499 25.408C23.7064 26.482 23.3017 27.4905 22.8391 28.4157C22.2924 29.5091 21.6827 30.4502 21.0234 31.2294C23.3768 30.4561 25.5331 29.136 27.3357 27.3335C27.4917 27.1775 27.6432 27.0181 27.792 26.8569C26.6839 26.2795 25.4225 25.7934 24.0499 25.408Z" fill="#51D5C1"/>
<path d="M15.0628 16.9376H8.46875C8.52951 19.1291 8.80291 21.2358 9.2689 23.1613C11.0936 22.7804 13.0484 22.5548 15.0628 22.5012V16.9376Z" fill="#51D5C1"/>
<path d="M13.3053 30.9164C13.8786 31.4014 14.4673 31.7281 15.064 31.8957V24.3766C13.2228 24.4278 11.4417 24.6297 9.78125 24.9673C10.086 25.8986 10.4401 26.7735 10.842 27.5771C11.564 29.0209 12.3927 30.1444 13.3053 30.9164Z" fill="#51D5C1"/>
</g>
<defs>
<clipPath id="clip0_348_2243">
<rect width="32" height="32" fill="white"/>
</clipPath>
</defs>
</svg>
