<svg width="1920" height="496" viewBox="0 0 1920 496" fill="none" xmlns="http://www.w3.org/2000/svg">
<rect width="1920" height="496" fill="#171921"/>
<mask id="mask0_1_109" style="mask-type:alpha" maskUnits="userSpaceOnUse" x="0" y="199" width="1920" height="297">
<rect y="199" width="1920" height="297" fill="#171921"/>
</mask>
<g mask="url(#mask0_1_109)">
<rect opacity="0.5" y="332.131" width="1920" height="163.869" fill="url(#paint0_radial_1_109)"/>
</g>
<g style="mix-blend-mode:overlay">
<path d="M1276.63 387.418L1094.41 282.214C1087.79 278.389 1088.62 267.751 1096.26 263.335L1357.25 116.611C1364.9 112.195 1376.47 111.716 1383.1 115.54L1565.32 216.786C1571.94 220.611 1571.11 231.249 1563.46 235.665L1302.47 386.347C1294.82 390.763 1283.25 391.242 1276.63 387.418Z" fill="url(#paint1_linear_1_109)"/>
<path d="M1276.63 383.46L1094.41 278.256C1087.79 274.432 1088.62 267.751 1096.26 263.336L1357.25 112.653C1364.9 108.237 1376.47 107.757 1383.1 111.582L1565.32 216.787C1571.94 220.611 1571.11 227.291 1563.46 231.707L1302.47 382.389C1294.82 386.805 1283.25 387.285 1276.63 383.46Z" fill="url(#paint2_linear_1_109)"/>
<path d="M1289.48 371.115L1528.2 233.984L1361.65 137.9L1130.66 279.422L1289.48 371.115Z" fill="url(#paint3_linear_1_109)"/>
<path d="M1388.47 313.969L1223.5 218.727L1264.26 185.116L1429.23 280.358L1388.47 313.969Z" fill="#D4DDF9"/>
<path d="M1300.78 212.633L1285.32 203.704C1283.89 202.882 1283.69 201.433 1284.86 200.466C1286.04 199.499 1288.14 199.381 1289.56 200.203L1305.03 209.132C1306.45 209.954 1306.66 211.404 1305.48 212.371C1304.31 213.338 1302.21 213.455 1300.78 212.633Z" fill="url(#paint4_linear_1_109)"/>
<path d="M1290.17 221.386L1274.7 212.457C1273.28 211.635 1273.07 210.185 1274.25 209.219C1275.42 208.252 1277.52 208.134 1278.95 208.956L1294.41 217.885C1295.84 218.707 1296.04 220.157 1294.87 221.124C1293.69 222.091 1291.59 222.208 1290.17 221.386Z" fill="url(#paint5_linear_1_109)"/>
<path d="M1279.56 230.14L1264.09 221.211C1262.67 220.389 1262.46 218.939 1263.64 217.972C1264.81 217.005 1266.91 216.888 1268.34 217.709L1283.8 226.639C1285.23 227.46 1285.43 228.91 1284.26 229.877C1283.08 230.844 1280.98 230.962 1279.56 230.14Z" fill="url(#paint6_linear_1_109)"/>
<path d="M1268.93 238.893L1253.47 229.964C1252.04 229.142 1251.84 227.692 1253.01 226.725C1254.18 225.758 1256.29 225.641 1257.71 226.463L1273.18 235.392C1274.6 236.214 1274.8 237.664 1273.63 238.631C1272.46 239.597 1270.36 239.715 1268.93 238.893Z" fill="url(#paint7_linear_1_109)"/>
<path d="M1383.53 260.406L1311.1 218.587C1309.68 217.765 1309.47 216.315 1310.64 215.348C1311.82 214.381 1313.92 214.264 1315.35 215.086L1387.78 256.905C1389.2 257.727 1389.4 259.177 1388.23 260.144C1387.06 261.111 1384.96 261.228 1383.53 260.406Z" fill="url(#paint8_linear_1_109)"/>
<path d="M1380.65 273.624L1300.48 227.34C1299.06 226.518 1298.85 225.068 1300.03 224.101C1301.2 223.134 1303.3 223.017 1304.73 223.839L1384.89 270.123C1386.32 270.944 1386.52 272.394 1385.35 273.361C1384.18 274.329 1382.07 274.446 1380.65 273.624Z" fill="url(#paint9_linear_1_109)"/>
<path d="M1377.76 286.842L1289.86 236.093C1288.44 235.271 1288.24 233.821 1289.41 232.855C1290.58 231.888 1292.69 231.77 1294.11 232.592L1382.01 283.341C1383.43 284.163 1383.64 285.613 1382.46 286.579C1381.29 287.547 1379.19 287.664 1377.76 286.842Z" fill="url(#paint10_linear_1_109)"/>
<path d="M1346.53 283.69L1279.25 244.846C1277.82 244.025 1277.62 242.575 1278.79 241.608C1279.97 240.641 1282.07 240.523 1283.49 241.345L1350.77 280.189C1352.2 281.011 1352.4 282.461 1351.23 283.427C1350.05 284.394 1347.95 284.512 1346.53 283.69Z" fill="url(#paint11_linear_1_109)"/>
<path d="M1487.44 256.824L1322.48 161.581L1363.24 127.971L1528.2 223.213L1487.44 256.824Z" fill="#D4DDF9"/>
<path d="M1382.34 188.285L1353.72 171.766C1352.3 170.944 1352.1 169.494 1353.27 168.527C1354.44 167.56 1356.55 167.442 1357.97 168.264L1386.58 184.784C1388.01 185.606 1388.21 187.056 1387.04 188.023C1385.86 188.99 1383.76 189.107 1382.34 188.285Z" fill="url(#paint12_linear_1_109)"/>
<path d="M1467.4 237.397L1454.26 229.807C1452.83 228.985 1452.63 227.535 1453.8 226.568C1454.97 225.601 1457.08 225.484 1458.5 226.305L1471.65 233.895C1473.07 234.717 1473.27 236.167 1472.1 237.134C1470.93 238.101 1468.83 238.219 1467.4 237.397Z" fill="url(#paint13_linear_1_109)"/>
<path d="M1429.22 280.359L1264.26 185.116L1322.47 161.582L1487.44 256.824L1429.22 280.359Z" fill="#C0C9F2"/>
<path d="M1407.04 259.096L1324.29 211.324C1322.87 210.502 1323.07 209.287 1324.75 208.61C1326.42 207.933 1328.93 208.051 1330.36 208.873L1413.1 256.645C1414.52 257.467 1414.32 258.682 1412.64 259.359C1410.97 260.036 1408.46 259.918 1407.04 259.096Z" fill="url(#paint14_linear_1_109)"/>
<path d="M1313.98 205.371L1298.51 196.441C1297.09 195.62 1297.29 194.404 1298.96 193.728C1300.64 193.051 1303.15 193.168 1304.57 193.99L1320.04 202.919C1321.46 203.741 1321.26 204.956 1319.59 205.633C1317.91 206.31 1315.4 206.192 1313.98 205.371Z" fill="url(#paint15_linear_1_109)"/>
<path d="M1427.04 240.886L1344.3 193.113C1342.88 192.291 1343.08 191.076 1344.75 190.399C1346.43 189.722 1348.94 189.84 1350.36 190.662L1433.11 238.435C1434.53 239.257 1434.33 240.472 1432.65 241.148C1430.98 241.825 1428.47 241.708 1427.04 240.886Z" fill="url(#paint16_linear_1_109)"/>
<path d="M1391.26 235.11L1313.67 190.312C1312.24 189.49 1312.45 188.275 1314.12 187.598C1315.8 186.921 1318.31 187.039 1319.73 187.861L1397.32 232.658C1398.74 233.48 1398.54 234.695 1396.87 235.372C1395.19 236.049 1392.68 235.931 1391.26 235.11Z" fill="url(#paint17_linear_1_109)"/>
<path d="M1330.25 337.504L1165.28 242.261L1223.5 218.727L1388.46 313.969L1330.25 337.504Z" fill="#C0C9F2"/>
<path d="M1339.4 294.461L1255.63 246.092C1254.2 245.27 1254.41 244.055 1256.08 243.378C1257.76 242.702 1260.27 242.819 1261.69 243.641L1345.47 292.009C1346.89 292.831 1346.69 294.046 1345.01 294.723C1343.34 295.4 1340.83 295.283 1339.4 294.461Z" fill="url(#paint18_linear_1_109)"/>
<path d="M1331.98 305.054L1225 243.292C1223.58 242.47 1223.78 241.255 1225.46 240.578C1227.13 239.901 1229.64 240.018 1231.07 240.84L1338.04 302.603C1339.47 303.425 1339.26 304.64 1337.59 305.317C1335.91 305.994 1333.4 305.876 1331.98 305.054Z" fill="url(#paint19_linear_1_109)"/>
<path d="M1297.74 300.171L1209.84 249.421C1208.41 248.599 1208.62 247.384 1210.29 246.707C1211.97 246.03 1214.48 246.147 1215.9 246.969L1303.8 297.72C1305.23 298.541 1305.02 299.756 1303.35 300.433C1301.68 301.11 1299.16 300.993 1297.74 300.171Z" fill="url(#paint20_linear_1_109)"/>
<path d="M1289.48 371.115L1124.52 275.872L1165.28 242.261L1330.24 337.504L1289.48 371.115Z" fill="#D4DDF9"/>
<path d="M1251.06 308.503C1255.09 309.166 1259.22 309.89 1263.37 309.984C1266.14 310.047 1269.36 309.715 1271.8 308.799C1273.95 307.989 1274.59 306.371 1273.31 304.905C1272.2 303.627 1270.01 302.902 1267.92 302.819C1263.31 302.634 1259.74 305.438 1260.31 308.567C1260.64 310.372 1262.37 311.923 1264.68 312.782C1265.88 313.228 1267.19 313.419 1268.53 313.456C1269.86 313.493 1271.18 313.419 1272.49 313.69C1272.27 313.593 1272.05 313.496 1271.83 313.399C1272.85 314.634 1275.15 315.171 1277.05 314.669C1276.62 314.528 1276.19 314.388 1275.76 314.247C1276.55 316.279 1278.02 318.388 1280.58 319.65C1282.97 320.828 1286.01 321.114 1288.72 320.38C1288.27 320.182 1287.83 319.984 1287.38 319.785C1287.84 322.327 1291.62 323.66 1294.88 324.236C1296.26 324.481 1297.68 324.385 1299.09 324.385C1300.62 324.385 1301.87 324.693 1303.01 325.418C1303.96 326.025 1305.24 324.973 1304.28 324.368C1303.18 323.664 1301.85 323.186 1300.35 323.061C1299.08 322.956 1297.82 323.079 1296.55 323.025C1295.06 322.961 1293.58 322.562 1292.27 322.083C1290.87 321.572 1289.58 320.808 1289.37 319.675C1289.29 319.248 1288.64 318.913 1288.03 319.08C1285.79 319.685 1283.31 319.438 1281.42 318.37C1279.39 317.225 1278.3 315.488 1277.64 313.791C1277.5 313.437 1276.82 313.244 1276.35 313.369C1275.59 313.57 1274.78 313.5 1274.11 313.158C1273.74 312.972 1273.62 312.677 1273.28 312.486C1272.86 312.242 1272.08 312.194 1271.56 312.152C1269.47 311.988 1267.44 312.26 1265.5 311.533C1263.64 310.836 1262.32 309.513 1262.26 308.052C1262.2 306.793 1263.05 305.496 1264.56 304.781C1266.14 304.032 1268.35 303.988 1270.06 304.624C1271.72 305.245 1272.91 306.75 1270.89 307.566C1269.76 308.021 1268.29 308.244 1267 308.415C1265.87 308.565 1264.71 308.629 1263.56 308.617C1259.47 308.576 1255.34 307.797 1251.38 307.146C1250.12 306.938 1249.8 308.296 1251.06 308.503Z" fill="url(#paint21_linear_1_109)"/>
<path d="M1479.72 216.967L1386.21 162.98C1383.56 161.45 1383.89 156.8 1386.95 155.033L1388.12 154.361C1418.71 136.697 1464.75 136.896 1491.25 152.193L1498.4 156.324C1524.9 171.621 1521.58 198.341 1490.98 216.004L1490.06 216.539C1487 218.305 1482.37 218.497 1479.72 216.967Z" fill="url(#paint22_linear_1_109)"/>
<path d="M1479.72 214.988L1386.21 161.001C1383.56 159.472 1383.89 156.8 1386.95 155.033L1387.88 154.498C1418.47 136.835 1464.75 134.916 1491.25 150.213L1498.4 154.344C1524.9 169.641 1521.58 196.361 1490.98 214.025L1490.06 214.56C1487 216.326 1482.37 216.518 1479.72 214.988Z" fill="url(#paint23_linear_1_109)"/>
<path d="M1463.89 178.555C1471.95 178.555 1478.47 174.786 1478.47 170.137C1478.47 165.488 1471.95 161.719 1463.89 161.719C1455.84 161.719 1449.31 165.488 1449.31 170.137C1449.31 174.786 1455.84 178.555 1463.89 178.555Z" fill="#C0C9F2"/>
<path d="M1463.89 176.074C1469.57 176.074 1474.17 173.416 1474.17 170.137C1474.17 166.858 1469.57 164.2 1463.89 164.2C1458.21 164.2 1453.61 166.858 1453.61 170.137C1453.61 173.416 1458.21 176.074 1463.89 176.074Z" fill="#D4DDF9"/>
</g>
<defs>
<radialGradient id="paint0_radial_1_109" cx="0" cy="0" r="1" gradientUnits="userSpaceOnUse" gradientTransform="translate(960 437.475) rotate(90) scale(92.6361 1215.8)">
<stop stop-color="#2F3343"/>
<stop offset="1" stop-color="#171921"/>
</radialGradient>
<linearGradient id="paint1_linear_1_109" x1="1089.94" y1="251.479" x2="1569.79" y2="251.479" gradientUnits="userSpaceOnUse">
<stop stop-color="#263299"/>
<stop offset="1" stop-color="#5060B3"/>
</linearGradient>
<linearGradient id="paint2_linear_1_109" x1="1089.94" y1="247.521" x2="1569.79" y2="247.521" gradientUnits="userSpaceOnUse">
<stop stop-color="#7385E6"/>
<stop offset="1" stop-color="#91A2FF"/>
</linearGradient>
<linearGradient id="paint3_linear_1_109" x1="1130.66" y1="254.507" x2="1528.2" y2="254.507" gradientUnits="userSpaceOnUse">
<stop stop-color="#263299"/>
<stop offset="1" stop-color="#5060B3"/>
</linearGradient>
<linearGradient id="paint4_linear_1_109" x1="1284.73" y1="200.389" x2="1305.62" y2="212.448" gradientUnits="userSpaceOnUse">
<stop stop-color="#263299"/>
<stop offset="1" stop-color="#5060B3"/>
</linearGradient>
<linearGradient id="paint5_linear_1_109" x1="1274.11" y1="209.142" x2="1295" y2="221.2" gradientUnits="userSpaceOnUse">
<stop stop-color="#263299"/>
<stop offset="1" stop-color="#5060B3"/>
</linearGradient>
<linearGradient id="paint6_linear_1_109" x1="1263.5" y1="217.896" x2="1284.39" y2="229.954" gradientUnits="userSpaceOnUse">
<stop stop-color="#263299"/>
<stop offset="1" stop-color="#5060B3"/>
</linearGradient>
<linearGradient id="paint7_linear_1_109" x1="1252.88" y1="226.649" x2="1273.76" y2="238.707" gradientUnits="userSpaceOnUse">
<stop stop-color="#263299"/>
<stop offset="1" stop-color="#5060B3"/>
</linearGradient>
<linearGradient id="paint8_linear_1_109" x1="1310.51" y1="215.272" x2="1388.36" y2="260.22" gradientUnits="userSpaceOnUse">
<stop stop-color="#263299"/>
<stop offset="1" stop-color="#5060B3"/>
</linearGradient>
<linearGradient id="paint9_linear_1_109" x1="1299.9" y1="224.025" x2="1385.48" y2="273.438" gradientUnits="userSpaceOnUse">
<stop stop-color="#263299"/>
<stop offset="1" stop-color="#5060B3"/>
</linearGradient>
<linearGradient id="paint10_linear_1_109" x1="1289.28" y1="232.778" x2="1382.6" y2="286.656" gradientUnits="userSpaceOnUse">
<stop stop-color="#263299"/>
<stop offset="1" stop-color="#5060B3"/>
</linearGradient>
<linearGradient id="paint11_linear_1_109" x1="1278.66" y1="241.531" x2="1351.36" y2="283.504" gradientUnits="userSpaceOnUse">
<stop stop-color="#263299"/>
<stop offset="1" stop-color="#5060B3"/>
</linearGradient>
<linearGradient id="paint12_linear_1_109" x1="1353.14" y1="168.45" x2="1387.17" y2="188.099" gradientUnits="userSpaceOnUse">
<stop stop-color="#263299"/>
<stop offset="1" stop-color="#5060B3"/>
</linearGradient>
<linearGradient id="paint13_linear_1_109" x1="1453.67" y1="226.492" x2="1472.23" y2="237.211" gradientUnits="userSpaceOnUse">
<stop stop-color="#7385E6"/>
<stop offset="1" stop-color="#91A2FF"/>
</linearGradient>
<linearGradient id="paint14_linear_1_109" x1="1324.21" y1="208.302" x2="1413.18" y2="259.667" gradientUnits="userSpaceOnUse">
<stop stop-color="#263299"/>
<stop offset="1" stop-color="#5060B3"/>
</linearGradient>
<linearGradient id="paint15_linear_1_109" x1="1298.43" y1="193.419" x2="1320.12" y2="205.941" gradientUnits="userSpaceOnUse">
<stop stop-color="#263299"/>
<stop offset="1" stop-color="#5060B3"/>
</linearGradient>
<linearGradient id="paint16_linear_1_109" x1="1344.22" y1="190.09" x2="1433.19" y2="241.457" gradientUnits="userSpaceOnUse">
<stop stop-color="#7385E6"/>
<stop offset="1" stop-color="#91A2FF"/>
</linearGradient>
<linearGradient id="paint17_linear_1_109" x1="1313.59" y1="187.29" x2="1397.4" y2="235.68" gradientUnits="userSpaceOnUse">
<stop stop-color="#7385E6"/>
<stop offset="1" stop-color="#91A2FF"/>
</linearGradient>
<linearGradient id="paint18_linear_1_109" x1="1255.55" y1="243.07" x2="1345.55" y2="295.032" gradientUnits="userSpaceOnUse">
<stop stop-color="#7385E6"/>
<stop offset="1" stop-color="#91A2FF"/>
</linearGradient>
<linearGradient id="paint19_linear_1_109" x1="1224.92" y1="240.269" x2="1338.12" y2="305.625" gradientUnits="userSpaceOnUse">
<stop stop-color="#7385E6"/>
<stop offset="1" stop-color="#91A2FF"/>
</linearGradient>
<linearGradient id="paint20_linear_1_109" x1="1209.76" y1="246.398" x2="1303.88" y2="300.742" gradientUnits="userSpaceOnUse">
<stop stop-color="#7385E6"/>
<stop offset="1" stop-color="#91A2FF"/>
</linearGradient>
<linearGradient id="paint21_linear_1_109" x1="1250.26" y1="314.205" x2="1304.62" y2="314.205" gradientUnits="userSpaceOnUse">
<stop stop-color="#FFBACC"/>
<stop offset="1" stop-color="#F3516F"/>
</linearGradient>
<linearGradient id="paint22_linear_1_109" x1="1384.42" y1="179.453" x2="1516.29" y2="179.453" gradientUnits="userSpaceOnUse">
<stop stop-color="#263299"/>
<stop offset="1" stop-color="#5060B3"/>
</linearGradient>
<linearGradient id="paint23_linear_1_109" x1="1384.42" y1="177.954" x2="1516.29" y2="177.954" gradientUnits="userSpaceOnUse">
<stop stop-color="#7385E6"/>
<stop offset="1" stop-color="#91A2FF"/>
</linearGradient>
</defs>
</svg>
