<svg width="40" height="40" viewBox="0 0 40 40" fill="none" xmlns="http://www.w3.org/2000/svg">
<circle cx="20" cy="20" r="20" fill="#51D5C1"/>
<g clip-path="url(#clip0_178_7513)">
<path d="M26.5235 12.3485C26.145 11.9693 25.6417 11.7604 25.1063 11.7604H24.2018V11.5781C24.2018 11.0756 23.7929 10.6667 23.2904 10.6667H16.7279C16.2253 10.6667 15.8164 11.0756 15.8164 11.5781V11.7604H14.9087C13.8054 11.7604 12.9069 12.659 12.9056 13.7634L12.8906 27.3259C12.89 27.8619 13.0981 28.366 13.4765 28.7452C13.8549 29.1245 14.3583 29.3334 14.8937 29.3334H25.0913C26.1946 29.3334 27.0932 28.4348 27.0944 27.3304L27.1094 13.7679C27.11 13.2318 26.9019 12.7277 26.5235 12.3485ZM16.9102 11.7604H23.1081V12.8542H16.9102V11.7604ZM26.0018 27.3291C26.0012 27.8312 25.5927 28.2396 25.0913 28.2396H14.8937C14.6503 28.2396 14.4215 28.1447 14.2495 27.9723C14.0775 27.7999 13.983 27.5708 13.9832 27.3272L13.9982 13.7647C13.9987 13.2626 14.4072 12.8542 14.9087 12.8542H15.8164V13.0365C15.8164 13.5391 16.2253 13.9479 16.7279 13.9479H23.2904C23.7929 13.9479 24.2018 13.5391 24.2018 13.0365V12.8542H25.1063C25.3497 12.8542 25.5785 12.9491 25.7505 13.1215C25.9225 13.2939 26.0171 13.523 26.0168 13.7666L26.0018 27.3291Z" fill="white"/>
<path d="M20.186 17.9584H24.0714C24.3735 17.9584 24.6183 17.7135 24.6183 17.4115C24.6183 17.1095 24.3735 16.8646 24.0714 16.8646H20.186C19.884 16.8646 19.6392 17.1095 19.6392 17.4115C19.6392 17.7135 19.884 17.9584 20.186 17.9584Z" fill="white"/>
<path d="M20.186 21.6042H24.0714C24.3735 21.6042 24.6183 21.3593 24.6183 21.0573C24.6183 20.7553 24.3735 20.5104 24.0714 20.5104H20.186C19.884 20.5104 19.6392 20.7553 19.6392 21.0573C19.6392 21.3593 19.884 21.6042 20.186 21.6042Z" fill="white"/>
<path d="M24.0871 24.1562H20.186C19.884 24.1562 19.6392 24.4011 19.6392 24.7031C19.6392 25.0051 19.884 25.25 20.186 25.25H24.0871C24.3891 25.25 24.634 25.0051 24.634 24.7031C24.634 24.4011 24.3891 24.1562 24.0871 24.1562Z" fill="white"/>
<path d="M17.8583 15.9224L16.5971 17.1835L16.2998 16.8862C16.0862 16.6726 15.74 16.6726 15.5264 16.8862C15.3128 17.0997 15.3128 17.446 15.5264 17.6595L16.2105 18.3437C16.313 18.4462 16.4521 18.5039 16.5972 18.5039C16.7422 18.5039 16.8813 18.4462 16.9838 18.3437L18.6317 16.6958C18.8453 16.4823 18.8453 16.136 18.6317 15.9224C18.4182 15.7088 18.0719 15.7088 17.8583 15.9224Z" fill="white"/>
<path d="M17.8583 19.8467L16.5971 21.1078L16.2998 20.8105C16.0862 20.5969 15.74 20.5969 15.5264 20.8105C15.3128 21.024 15.3128 21.3703 15.5264 21.5839L16.2105 22.268C16.313 22.3705 16.4521 22.4282 16.5972 22.4282C16.7422 22.4282 16.8813 22.3706 16.9838 22.268L18.6317 20.6201C18.8453 20.4066 18.8453 20.0603 18.6317 19.8467C18.4182 19.6331 18.0719 19.6331 17.8583 19.8467Z" fill="white"/>
<path d="M17.8583 23.4925L16.5971 24.7536L16.2998 24.4563C16.0862 24.2427 15.74 24.2427 15.5264 24.4563C15.3128 24.6698 15.3128 25.0161 15.5264 25.2297L16.2105 25.9138C16.313 26.0163 16.4521 26.074 16.5972 26.074C16.7422 26.074 16.8813 26.0164 16.9838 25.9138L18.6317 24.2659C18.8453 24.0524 18.8453 23.7061 18.6317 23.4925C18.4182 23.2789 18.0719 23.2789 17.8583 23.4925Z" fill="white"/>
</g>
<defs>
<clipPath id="clip0_178_7513">
<rect width="18.6667" height="18.6667" fill="white" transform="translate(10.6667 10.6667)"/>
</clipPath>
</defs>
</svg>
