<svg width="46" height="46" viewBox="0 0 46 46" fill="none" xmlns="http://www.w3.org/2000/svg">
<circle cx="23" cy="23" r="23" fill="#51D5C1"/>
<path d="M32.0892 11H30.0141C29.6376 10.9989 29.2646 11.0726 28.9167 11.2168C28.5689 11.3609 28.2531 11.5727 27.9877 11.8398L19.9998 19.8268C18.4704 19.4322 16.8538 19.5514 15.3989 20.166C13.9439 20.7805 12.7314 21.8564 11.9481 23.2279C11.1647 24.5993 10.854 26.1903 11.0638 27.7557C11.2736 29.3211 11.9923 30.7741 13.1091 31.8909C14.2259 33.0077 15.6789 33.7264 17.2443 33.9362C18.8097 34.146 20.4007 33.8353 21.7721 33.0519C23.1436 32.2686 24.2195 31.0561 24.834 29.6011C25.4486 28.1462 25.5678 26.5296 25.1732 25.0003L26.3569 23.8165V21.5093H29.2231V18.6431H31.5294L33.1602 17.0123C33.4272 16.7466 33.6389 16.4306 33.783 16.0827C33.9272 15.7347 34.0009 15.3616 34 14.9849V12.9108C34 12.404 33.7987 11.918 33.4403 11.5597C33.082 11.2013 32.596 11 32.0892 11ZM32.0892 14.9849C32.0893 15.1105 32.0646 15.2349 32.0166 15.351C31.9686 15.4671 31.8981 15.5725 31.8093 15.6613L30.7383 16.7323H27.3123V19.5985H24.4461V23.0236L22.97 24.4996C23.3062 25.2075 23.4839 25.9803 23.4907 26.7639C23.4907 27.8032 23.1826 28.8191 22.6052 29.6832C22.0278 30.5473 21.2071 31.2208 20.247 31.6185C19.2868 32.0162 18.2303 32.1203 17.211 31.9176C16.1917 31.7148 15.2554 31.2143 14.5205 30.4795C13.7856 29.7446 13.2852 28.8083 13.0824 27.789C12.8797 26.7697 12.9838 25.7132 13.3815 24.753C13.7792 23.7929 14.4527 22.9722 15.3168 22.3948C16.1809 21.8174 17.1968 21.5093 18.2361 21.5093C19.0251 21.4577 19.812 21.6384 20.4994 22.029L29.3387 13.1907C29.5183 13.0123 29.7609 12.9118 30.0141 12.9108H32.0892V14.9849ZM15.8476 28.197C15.8476 28.3859 15.9037 28.5706 16.0086 28.7278C16.1136 28.8849 16.2628 29.0073 16.4374 29.0796C16.612 29.1519 16.8041 29.1709 16.9894 29.134C17.1747 29.0971 17.345 29.0061 17.4786 28.8725C17.6122 28.7389 17.7032 28.5687 17.7401 28.3834C17.7769 28.198 17.758 28.0059 17.6857 27.8314C17.6134 27.6568 17.4909 27.5076 17.3338 27.4026C17.1767 27.2976 16.992 27.2416 16.803 27.2416C16.5496 27.2416 16.3066 27.3422 16.1275 27.5214C15.9483 27.7006 15.8476 27.9436 15.8476 28.197Z" fill="white"/>
</svg>
