<svg width="46" height="46" viewBox="0 0 46 46" fill="none" xmlns="http://www.w3.org/2000/svg">
<circle cx="23" cy="23" r="23" fill="#51D5C1"/>
<path d="M29.4167 34H16.5833C14.0561 34 12 31.9439 12 29.4167V16.5833C12 14.0561 14.0561 12 16.5833 12H29.4167C31.9439 12 34 14.0561 34 16.5833V29.4167C34 31.9439 31.9439 34 29.4167 34ZM16.5833 13.8333C15.0672 13.8333 13.8333 15.0672 13.8333 16.5833V29.4167C13.8333 30.9328 15.0672 32.1667 16.5833 32.1667H29.4167C30.9328 32.1667 32.1667 30.9328 32.1667 29.4167V16.5833C32.1667 15.0672 30.9328 13.8333 29.4167 13.8333H16.5833ZM17.0417 15.6667C16.2827 15.6667 15.6667 16.2827 15.6667 17.0417C15.6667 17.8007 16.2827 18.4167 17.0417 18.4167C17.8007 18.4167 18.4167 17.8007 18.4167 17.0417C18.4167 16.2827 17.8007 15.6667 17.0417 15.6667ZM28.9583 15.6667C28.1993 15.6667 27.5833 16.2827 27.5833 17.0417C27.5833 17.8007 28.1993 18.4167 28.9583 18.4167C29.7173 18.4167 30.3333 17.8007 30.3333 17.0417C30.3333 16.2827 29.7173 15.6667 28.9583 15.6667ZM17.0417 27.5833C16.2827 27.5833 15.6667 28.1993 15.6667 28.9583C15.6667 29.7173 16.2827 30.3333 17.0417 30.3333C17.8007 30.3333 18.4167 29.7173 18.4167 28.9583C18.4167 28.1993 17.8007 27.5833 17.0417 27.5833ZM28.9583 27.5833C28.1993 27.5833 27.5833 28.1993 27.5833 28.9583C27.5833 29.7173 28.1993 30.3333 28.9583 30.3333C29.7173 30.3333 30.3333 29.7173 30.3333 28.9583C30.3333 28.1993 29.7173 27.5833 28.9583 27.5833Z" fill="white"/>
</svg>
