<svg width="46" height="46" viewBox="0 0 46 46" fill="none" xmlns="http://www.w3.org/2000/svg">
<circle cx="23" cy="23" r="23" fill="#51D5C1"/>
<path d="M19.1778 26.8221C18.9669 26.6112 18.7688 26.3801 18.59 26.1362C18.292 25.7273 18.3818 25.1533 18.7917 24.8553C19.2007 24.5572 19.7738 24.6471 20.0727 25.0561C20.191 25.2193 20.3239 25.3761 20.4734 25.5246C21.2097 26.2609 22.1881 26.6662 23.2288 26.6662C24.2696 26.6662 25.2489 26.2609 25.9843 25.5246L31.0275 20.4814C32.5469 18.962 32.5469 16.489 31.0275 14.9696C29.5081 13.4503 27.0351 13.4503 25.5157 14.9696L24.5456 15.9398C24.187 16.2983 23.6075 16.2983 23.249 15.9398C22.8905 15.5812 22.8905 15.0017 23.249 14.6432L24.2191 13.6731C26.4537 11.4375 30.0894 11.4375 32.3241 13.6731C34.5587 15.9077 34.5587 19.5434 32.3241 21.778L27.2808 26.8212C26.1988 27.9041 24.7592 28.5001 23.2288 28.5001C21.6984 28.5001 20.2588 27.9041 19.1778 26.8221ZM17.7271 34.0018C19.2584 34.0018 20.6971 33.4058 21.7791 32.3229L22.7493 31.3528C23.1078 30.9951 23.1078 30.4147 22.7493 30.0562C22.3917 29.6977 21.8112 29.6986 21.4527 30.0562L20.4817 31.0263C19.7453 31.7626 18.767 32.1679 17.7262 32.1679C16.6855 32.1679 15.7071 31.7626 14.9708 31.0263C14.2345 30.29 13.8292 29.3116 13.8292 28.2709C13.8292 27.2302 14.2345 26.2509 14.9708 25.5155L20.014 20.4722C20.7503 19.7359 21.7287 19.3306 22.7694 19.3306C23.8102 19.3306 24.7895 19.7359 25.5249 20.4722C25.6716 20.6199 25.8055 20.7767 25.9247 20.9399C26.2218 21.3498 26.7948 21.4415 27.2056 21.1425C27.6155 20.8445 27.7063 20.2714 27.4083 19.8616C27.2341 19.6213 27.0369 19.3912 26.8224 19.1766C25.7394 18.0928 24.2998 17.4967 22.7694 17.4967C21.2391 17.4967 19.7994 18.0928 18.7174 19.1757L13.6751 24.2189C12.5922 25.3009 11.9962 26.7405 11.9962 28.2709C11.9962 29.8013 12.5922 31.2409 13.6751 32.3229C14.7571 33.4058 16.1958 34.0018 17.7271 34.0018Z" fill="white"/>
</svg>
