<svg width="46" height="46" viewBox="0 0 46 46" fill="none" xmlns="http://www.w3.org/2000/svg">
<circle cx="23" cy="23" r="23" fill="#51D5C1"/>
<path d="M23.5 9C20.83 9 18.2199 9.79176 15.9998 11.2752C13.7797 12.7586 12.0494 14.867 11.0276 17.3338C10.0058 19.8006 9.7385 22.515 10.2594 25.1337C10.7803 27.7525 12.0661 30.1579 13.9541 32.0459C15.8421 33.9339 18.2475 35.2197 20.8663 35.7406C23.485 36.2615 26.1994 35.9942 28.6662 34.9724C31.133 33.9506 33.2414 32.2203 34.7248 30.0002C36.2082 27.7801 37 25.17 37 22.5C36.9961 18.9208 35.5726 15.4892 33.0417 12.9583C30.5108 10.4274 27.0792 9.00387 23.5 9ZM34.2696 19.26L24.2481 21.2085C24.0904 20.9651 23.952 20.7097 23.8341 20.4446L20.0766 11.7821C21.4991 11.3262 22.9982 11.1585 24.4863 11.2888C25.9744 11.4192 27.4215 11.8449 28.7431 12.5412C30.0647 13.2375 31.2341 14.1904 32.1831 15.344C33.132 16.4977 33.8413 17.8289 34.2696 19.26ZM23.5 33.75C21.0105 33.7509 18.5911 32.9256 16.6211 31.4036C14.6511 29.8815 13.2419 27.7487 12.6145 25.3396C11.987 22.9305 12.1768 20.3812 13.1541 18.0916C14.1314 15.8019 15.8408 13.9013 18.0145 12.6877L21.7698 21.3401C22.3041 22.5699 23.1431 23.6432 24.2076 24.4586L31.6923 30.1871C30.6438 31.3107 29.3756 32.2068 27.9663 32.8197C26.557 33.4326 25.0368 33.7493 23.5 33.75ZM33.0625 28.4006L26.1719 23.1266L34.7005 21.4695C34.7309 21.807 34.7523 22.1524 34.7523 22.5C34.7513 24.5861 34.1659 26.6302 33.0625 28.4006Z" fill="white"/>
</svg>
