<svg width="46" height="46" viewBox="0 0 46 46" fill="none" xmlns="http://www.w3.org/2000/svg">
<circle cx="23" cy="23" r="23" fill="#51D5C1"/>
<g clip-path="url(#clip0_123_683)">
<path d="M17.0417 22.0833C14.2572 22.0833 12 19.8261 12 17.0417C12 14.2572 14.2572 12 17.0417 12C19.8261 12 22.0833 14.2572 22.0833 17.0417C22.0803 19.8249 19.8249 22.0803 17.0417 22.0833ZM17.0417 14.75C15.776 14.75 14.75 15.776 14.75 17.0417C14.75 18.3073 15.776 19.3333 17.0417 19.3333C18.3073 19.3333 19.3333 18.3073 19.3333 17.0417C19.3333 15.776 18.3073 14.75 17.0417 14.75Z" fill="white"/>
<path d="M28.9583 22.0833C26.1739 22.0833 23.9167 19.8261 23.9167 17.0417C23.9167 14.2573 26.1739 12 28.9583 12C31.7428 12 34 14.2572 34 17.0417C33.9969 19.8249 31.7415 22.0803 28.9583 22.0833ZM28.9583 14.75C27.6927 14.75 26.6667 15.776 26.6667 17.0417C26.6667 18.3073 27.6927 19.3333 28.9583 19.3333C30.224 19.3333 31.25 18.3073 31.25 17.0417C31.25 15.776 30.224 14.75 28.9583 14.75Z" fill="white"/>
<path d="M17.0417 34C14.2572 34 12 31.7428 12 28.9583C12 26.1739 14.2572 23.9167 17.0417 23.9167C19.8261 23.9167 22.0833 26.1739 22.0833 28.9583C22.0803 31.7415 19.8249 33.9969 17.0417 34ZM17.0417 26.6666C15.776 26.6666 14.75 27.6927 14.75 28.9583C14.75 30.224 15.776 31.25 17.0417 31.25C18.3073 31.25 19.3333 30.224 19.3333 28.9583C19.3333 27.6927 18.3073 26.6666 17.0417 26.6666Z" fill="white"/>
<path d="M28.9583 34C26.1739 34 23.9167 31.7428 23.9167 28.9583C23.9167 26.1739 26.1739 23.9167 28.9583 23.9167C31.7428 23.9167 34 26.1739 34 28.9583C33.9969 31.7415 31.7415 33.9969 28.9583 34ZM28.9583 26.6666C27.6927 26.6666 26.6667 27.6927 26.6667 28.9583C26.6667 30.2239 27.6927 31.25 28.9583 31.25C30.224 31.25 31.25 30.224 31.25 28.9583C31.25 27.6927 30.224 26.6666 28.9583 26.6666Z" fill="white"/>
</g>
<defs>
<clipPath id="clip0_123_683">
<rect width="22" height="22" fill="white" transform="translate(12 12)"/>
</clipPath>
</defs>
</svg>
