<svg width="40" height="40" viewBox="0 0 40 40" fill="none" xmlns="http://www.w3.org/2000/svg">
<circle cx="20" cy="20" r="20" fill="#51D5C1"/>
<g clip-path="url(#clip0_178_7541)">
<path d="M28.6705 13.2417C28.2694 13.2051 27.9147 13.5006 27.8781 13.9017L27.7815 14.9615C26.1424 12.3873 23.297 10.6667 20.0001 10.6667C16.4534 10.6667 13.3278 12.6909 11.7762 15.7291C11.5931 16.0877 11.7353 16.5269 12.094 16.7101C12.4527 16.8933 12.8918 16.751 13.075 16.3924C14.3881 13.8212 17.025 12.125 20.0001 12.125C22.7118 12.125 25.159 13.5371 26.5609 15.7493L25.5212 15.0067C25.1935 14.7727 24.7381 14.8486 24.5041 15.1763C24.2701 15.504 24.346 15.9594 24.6737 16.1934L27.8264 18.4451C28.2885 18.7745 28.9258 18.473 28.9763 17.918L29.3304 14.0341C29.367 13.633 29.0715 13.2783 28.6705 13.2417Z" fill="white"/>
<path d="M27.9062 23.2899C27.5475 23.1068 27.1084 23.249 26.9252 23.6077C25.6121 26.1789 22.9752 27.875 20 27.875C17.2884 27.875 14.8412 26.4629 13.4393 24.2508L14.4789 24.9933C14.8067 25.2273 15.262 25.1514 15.4961 24.8237C15.7301 24.496 15.6542 24.0406 15.3265 23.8066L12.1738 21.5549C11.7174 21.2288 11.0749 21.5213 11.0239 22.082L10.6698 25.9659C10.6332 26.367 10.9287 26.7217 11.3297 26.7583C11.7313 26.7948 12.0856 26.499 12.1221 26.0983L12.2187 25.0385C13.8578 27.6127 16.7032 29.3333 20 29.3333C23.5467 29.3333 26.6724 27.3091 28.2239 24.271C28.4071 23.9123 28.2649 23.4731 27.9062 23.2899Z" fill="white"/>
</g>
<defs>
<clipPath id="clip0_178_7541">
<rect width="18.6667" height="18.6667" fill="white" transform="translate(10.6667 10.6667)"/>
</clipPath>
</defs>
</svg>
